<svg xmlns="http://www.w3.org/2000/svg" width="1024" height="1024" viewBox="0 0 1024 1024">
  <defs>
    <linearGradient id="bg" x1="0%" y1="0%" x2="0%" y2="100%">
      <stop offset="0%" stop-color="#7A3FD4"></stop>
      <stop offset="100%" stop-color="#3D1670"></stop>
    </linearGradient>
    <linearGradient id="tr" x1="0%" y1="100%" x2="100%" y2="0%">
      <stop offset="0%" stop-color="#FE315D"></stop>
      <stop offset="100%" stop-color="#FF9128"></stop>
    </linearGradient>
    <linearGradient id="br" x1="0%" y1="100%" x2="100%" y2="0%">
      <stop offset="0%" stop-color="#E40075"></stop>
      <stop offset="100%" stop-color="#FCEE39"></stop>
    </linearGradient>
    <clipPath id="clip">
      <rect x="0" y="0" width="1024" height="1024" rx="225.28" ry="225.28"></rect>
    </clipPath>
  </defs>
  <g clip-path="url(#clip)">
    <rect x="0" y="0" width="1024" height="1024" fill="url(#bg)"></rect>
    <polygon points="512.00,0 1024,0 1024,563.20 430.08,573.44" fill="url(#tr)"></polygon>
    <polygon points="1024,563.20 1024,1024 0,1024 0,839.68 430.08,573.44" fill="url(#br)"></polygon>
  </g>
  <g transform="translate(225.28, 225.28) scale(5.7344)">
    <g fill="none" stroke="#FFFFFF" stroke-width="8" stroke-linecap="round" stroke-linejoin="round">
      <line x1="26" y1="14" x2="26" y2="86"></line>
      <path d="M 26 50 Q 26 68, 50 68 L 72 68"></path>
    </g>
    <circle cx="26" cy="14" r="8" fill="#FFFFFF"></circle>
    <circle cx="26" cy="50" r="8" fill="#FFFFFF"></circle>
    <circle cx="26" cy="86" r="8" fill="#FFFFFF"></circle>
    <circle cx="72" cy="68" r="8" fill="#FFFFFF"></circle>
  </g>
</svg>