<svg xmlns="http://www.w3.org/2000/svg" width="128" height="128" viewBox="0 0 128 128">
  <defs>
    <linearGradient id="bg" x1="0%" y1="0%" x2="0%" y2="100%">
      <stop offset="0%" stop-color="#7A3FD4"></stop>
      <stop offset="100%" stop-color="#3D1670"></stop>
    </linearGradient>
    <linearGradient id="tr" x1="0%" y1="100%" x2="100%" y2="0%">
      <stop offset="0%" stop-color="#FE315D"></stop>
      <stop offset="100%" stop-color="#FF9128"></stop>
    </linearGradient>
    <linearGradient id="br" x1="0%" y1="100%" x2="100%" y2="0%">
      <stop offset="0%" stop-color="#E40075"></stop>
      <stop offset="100%" stop-color="#FCEE39"></stop>
    </linearGradient>
    <clipPath id="clip">
      <rect x="0" y="0" width="128" height="128" rx="28.16" ry="28.16"></rect>
    </clipPath>
  </defs>
  <g clip-path="url(#clip)">
    <rect x="0" y="0" width="128" height="128" fill="url(#bg)"></rect>
    <polygon points="64.00,0 128,0 128,70.40 53.76,71.68" fill="url(#tr)"></polygon>
    <polygon points="128,70.40 128,128 0,128 0,104.96 53.76,71.68" fill="url(#br)"></polygon>
  </g>
  <g transform="translate(28.16, 28.16) scale(0.7168)">
    <g fill="none" stroke="#FFFFFF" stroke-width="8" stroke-linecap="round" stroke-linejoin="round">
      <line x1="26" y1="14" x2="26" y2="86"></line>
      <path d="M 26 50 Q 26 68, 50 68 L 72 68"></path>
    </g>
    <circle cx="26" cy="14" r="8" fill="#FFFFFF"></circle>
    <circle cx="26" cy="50" r="8" fill="#FFFFFF"></circle>
    <circle cx="26" cy="86" r="8" fill="#FFFFFF"></circle>
    <circle cx="72" cy="68" r="8" fill="#FFFFFF"></circle>
  </g>
</svg>